<svg fill="none" height="1024" viewBox="0 0 1024 1024" width="1024" xmlns="http://www.w3.org/2000/svg"><path d="m0 0h1024v1024h-1024z" fill="#1a1a1a"/><g fill="#fff"><rect height="61.3333" rx="30.6667" width="457" x="128" y="128"/><rect height="61.3333" opacity=".1" rx="30.6667" width="255" x="641" y="128"/><rect height="61.3333" rx="30.6667" width="578" x="128" y="269.333"/><rect height="61.3333" opacity=".1" rx="30.6667" width="134" x="762" y="269.333"/><rect height="61.3333" rx="30.6667" width="325" x="128" y="410.667"/><rect height="61.3333" opacity=".1" rx="30.6667" width="387" x="509" y="410.667"/><rect height="61.3333" rx="30.6667" width="456" x="128" y="552"/><rect height="61.3333" opacity=".1" rx="30.6667" width="256" x="640" y="552"/><rect height="61.3333" rx="30.6667" width="253" x="128" y="693.333"/><rect height="61.3333" opacity=".1" rx="30.6667" width="459" x="437" y="693.333"/><rect height="61.3333" rx="30.6667" width="520" x="128" y="834.667"/><rect height="61.3333" opacity=".1" rx="30.6667" width="192" x="704" y="834.667"/></g></svg>